<svg width="40" height="41" viewBox="0 0 40 41" fill="none" xmlns="http://www.w3.org/2000/svg">
<rect width="40" height="40" fill="#111111"/>
<path fill-rule="evenodd" clip-rule="evenodd" d="M32.8158 17.1099H12.8253L32.0264 11.5476C32.1756 11.5044 32.3015 11.4034 32.3766 11.2675C32.4517 11.1313 32.4695 10.9711 32.4262 10.8218L31.4215 7.35313C31.02 5.96771 29.73 5 28.2844 5C27.9798 5 27.6763 5.04326 27.3819 5.1284L9.35404 10.3508C8.52022 10.5923 7.82923 11.1466 7.40786 11.9113C6.98671 12.676 6.88784 13.5565 7.12931 14.3901L8.11098 17.7789V31.7391C8.11098 33.5372 9.57377 35 11.3716 35H18.4125C18.7361 35 18.9984 34.7377 18.9984 34.4141C18.9984 34.0904 18.7361 33.8281 18.4125 33.8281H11.3719C10.2199 33.8281 9.28286 32.8911 9.28286 31.7391V23.7653H12.2846H12.286H12.2872H16.8758H16.8772H16.8785H21.4672H21.4685H21.4699H26.0585H26.0599H26.061H32.2299V31.7391C32.2299 32.8911 31.2928 33.8281 30.1409 33.8281H23.1C22.7766 33.8281 22.5141 34.0904 22.5141 34.4141C22.5141 34.7377 22.7766 35 23.1 35H30.1409C31.939 35 33.4017 33.5372 33.4017 31.7391V17.6958C33.4017 17.3722 33.1394 17.1099 32.8158 17.1099V17.1099ZM22.4838 22.5935L24.9734 18.2818H28.2114L25.7221 22.5935H22.4838ZM17.8925 22.5935L20.382 18.2818H23.62L21.1307 22.5935H17.8925ZM13.3013 22.5935L15.7907 18.2818H19.0289L16.5393 22.5935H13.3013ZM15.4798 15.0081L11.311 11.004L14.4345 10.0993C14.4565 10.1313 14.4821 10.1615 14.5114 10.1897L18.6803 14.1937L15.5567 15.0985C15.5348 15.0665 15.5089 15.036 15.4798 15.0081ZM23.3314 7.63466L27.5003 11.6387L24.3767 12.5435C24.3547 12.5114 24.3291 12.481 24.2998 12.4531L20.1309 8.44902L23.2545 7.54425C23.2765 7.57629 23.3021 7.60651 23.3314 7.63466ZM18.9213 8.91228L23.0902 12.9161L19.9666 13.8211C19.9446 13.7891 19.919 13.7586 19.8897 13.7307L15.7208 9.72664L18.8444 8.82187C18.8666 8.85368 18.8922 8.88412 18.9213 8.91228ZM27.7081 6.25404C27.8962 6.19957 28.0901 6.17188 28.2844 6.17188C29.2116 6.17188 30.0386 6.79169 30.2958 7.67929L31.1376 10.5849L28.7868 11.2659C28.7646 11.2338 28.739 11.2036 28.7097 11.1755L24.541 7.17163L27.7081 6.25404ZM8.43439 12.4767C8.70447 11.9862 9.1469 11.6309 9.6802 11.4764L10.0244 11.3766C10.0466 11.4087 10.0723 11.4391 10.1013 11.4671L14.2702 15.4711L9.09678 16.9698L8.25495 14.0642C8.10045 13.5311 8.16431 12.9674 8.43439 12.4767ZM9.28286 18.2818H14.4375L11.9482 22.5935H9.28286V18.2818ZM27.0752 22.5935L29.5645 18.2818H32.2299V22.5935H27.0752Z" fill="white"/>
<g filter="url(#filter0_d)">
<path fill-rule="evenodd" clip-rule="evenodd" d="M24.8079 28.7371C24.8079 28.5277 24.6962 28.3343 24.515 28.2297L19.3672 25.2576C19.1859 25.153 18.9625 25.153 18.7812 25.2576C18.6 25.3622 18.4883 25.5557 18.4883 25.7651V31.7091C18.4883 31.9183 18.6 32.1117 18.7812 32.2163C18.8719 32.2688 18.973 32.2951 19.0742 32.2951C19.1754 32.2951 19.2765 32.2688 19.3672 32.2163L24.515 29.2445C24.6962 29.1399 24.8079 28.9465 24.8079 28.7371ZM19.6601 30.6943V26.7799L23.0501 28.7371L19.6601 30.6943Z" fill="white"/>
</g>
<path fill-rule="evenodd" clip-rule="evenodd" d="M20.7563 33.8281C20.4335 33.8281 20.1703 34.0913 20.1703 34.4141C20.1703 34.7368 20.4335 35 20.7563 35C21.0792 35 21.3422 34.7368 21.3422 34.4141C21.3422 34.0913 21.0792 33.8281 20.7563 33.8281Z" fill="white"/>
<defs>
<filter id="filter0_d" x="14.4883" y="25.1792" width="14.3197" height="15.1159" filterUnits="userSpaceOnUse" color-interpolation-filters="sRGB">
<feFlood flood-opacity="0" result="BackgroundImageFix"/>
<feColorMatrix in="SourceAlpha" type="matrix" values="0 0 0 0 0 0 0 0 0 0 0 0 0 0 0 0 0 0 127 0"/>
<feOffset dy="4"/>
<feGaussianBlur stdDeviation="2"/>
<feColorMatrix type="matrix" values="0 0 0 0 0 0 0 0 0 0 0 0 0 0 0 0 0 0 0.25 0"/>
<feBlend mode="normal" in2="BackgroundImageFix" result="effect1_dropShadow"/>
<feBlend mode="normal" in="SourceGraphic" in2="effect1_dropShadow" result="shape"/>
</filter>
</defs>
</svg>
