<svg width="91" height="27" viewBox="0 0 91 27" fill="none" xmlns="http://www.w3.org/2000/svg">
<path d="M4.60547 22.5479H15.9019V26H0.281738V1.11719H4.60547V22.5479ZM39.4819 14.208C39.4819 16.6462 39.0604 18.7881 38.2173 20.6338C37.3742 22.4681 36.1665 23.8809 34.5942 24.8721C33.0334 25.8519 31.2332 26.3418 29.1938 26.3418C27.1772 26.3418 25.3771 25.8519 23.7935 24.8721C22.2212 23.8809 21.0021 22.4738 20.1362 20.6509C19.2817 18.828 18.8488 16.7259 18.8374 14.3447V12.9434C18.8374 10.5166 19.2646 8.37467 20.1191 6.51758C20.985 4.66048 22.1984 3.24202 23.7593 2.26221C25.3315 1.271 27.1317 0.775391 29.1597 0.775391C31.1877 0.775391 32.9821 1.2653 34.543 2.24512C36.1152 3.21354 37.3286 4.61491 38.1831 6.44922C39.0376 8.27214 39.4705 10.397 39.4819 12.8237V14.208ZM35.1582 12.9092C35.1582 10.152 34.6341 8.03857 33.5859 6.56885C32.5492 5.09912 31.0737 4.36426 29.1597 4.36426C27.2912 4.36426 25.8271 5.09912 24.7676 6.56885C23.7194 8.02718 23.1839 10.0951 23.1611 12.7725V14.208C23.1611 16.9424 23.6909 19.0558 24.7505 20.5483C25.8215 22.0409 27.3026 22.7871 29.1938 22.7871C31.1079 22.7871 32.5776 22.0579 33.603 20.5996C34.6398 19.1413 35.1582 17.0107 35.1582 14.208V12.9092ZM64.3608 22.77C63.4608 23.9435 62.2132 24.8322 60.6182 25.436C59.0231 26.0399 57.2116 26.3418 55.1836 26.3418C53.0986 26.3418 51.2529 25.869 49.6465 24.9233C48.04 23.9777 46.7982 22.6276 45.9209 20.873C45.055 19.1071 44.605 17.0506 44.5708 14.7036V12.7554C44.5708 8.99561 45.4709 6.06185 47.271 3.9541C49.0711 1.83496 51.5833 0.775391 54.8076 0.775391C57.5762 0.775391 59.7751 1.45898 61.4043 2.82617C63.0335 4.19336 64.0133 6.16439 64.3438 8.73926H60.1055C59.627 5.74284 57.8895 4.24463 54.8931 4.24463C52.9562 4.24463 51.4808 4.94531 50.4668 6.34668C49.4642 7.73665 48.9458 9.78174 48.9116 12.4819V14.396C48.9116 17.0848 49.4756 19.1755 50.6035 20.668C51.7428 22.1491 53.3208 22.8896 55.3374 22.8896C57.5477 22.8896 59.12 22.3883 60.0542 21.3857V16.5151H54.9272V13.2339H64.3608V22.77ZM90.4702 14.208C90.4702 16.6462 90.0487 18.7881 89.2056 20.6338C88.3625 22.4681 87.1548 23.8809 85.5825 24.8721C84.0216 25.8519 82.2215 26.3418 80.1821 26.3418C78.1655 26.3418 76.3654 25.8519 74.7817 24.8721C73.2095 23.8809 71.9904 22.4738 71.1245 20.6509C70.27 18.828 69.8371 16.7259 69.8257 14.3447V12.9434C69.8257 10.5166 70.2529 8.37467 71.1074 6.51758C71.9733 4.66048 73.1867 3.24202 74.7476 2.26221C76.3198 1.271 78.12 0.775391 80.1479 0.775391C82.1759 0.775391 83.9704 1.2653 85.5312 2.24512C87.1035 3.21354 88.3169 4.61491 89.1714 6.44922C90.0259 8.27214 90.4588 10.397 90.4702 12.8237V14.208ZM86.1465 12.9092C86.1465 10.152 85.6224 8.03857 84.5742 6.56885C83.5374 5.09912 82.062 4.36426 80.1479 4.36426C78.2795 4.36426 76.8154 5.09912 75.7559 6.56885C74.7077 8.02718 74.1722 10.0951 74.1494 12.7725V14.208C74.1494 16.9424 74.6792 19.0558 75.7388 20.5483C76.8097 22.0409 78.2909 22.7871 80.1821 22.7871C82.0962 22.7871 83.5659 22.0579 84.5913 20.5996C85.6281 19.1413 86.1465 17.0107 86.1465 14.208V12.9092Z" fill="white"/>
</svg>
